# xmcd
#
# Track frame offsets:
#	150
#	7735
#	15033
#	26804
#	34628
#	44399
#	53532
#	64944
#	72301
#	80839
#	87722
#	93197
#	103873
#	114674
#	121885
#	132815
#	138274
#	147893
#	152418
#	160443
#
# Disc length: 2301 seconds
#
# Revision: 1
# Processed by: cddbd v1.4PL0 Copyright (c) Steve Scherf et al.
# Submitted via: audiograbber 1.81.02
#
DISCID=0108fb14
DTITLE=Red Smiley and Bluegrass Cut Ups - 20 Bluegrass Favorites
DYEAR=1900
DGENRE=
TTITLE0=Ain't Nobody Gonna Miss Me When I'm Gone
TTITLE1=It'S Raining Here This Morning
TTITLE2=The Pale Horse And His Rider
TTITLE3=Plant Some Flowers By My Grave
TTITLE4=Prisoner'S Dream
TTITLE5=Take Me In The Lifeboat
TTITLE6=Budded On Earth To Bloom In Heaven
TTITLE7=I'Ll Be No Stranger There
TTITLE8=The Man Of Galilee
TTITLE9=A Beautiful Life
TTITLE10=Little Darling Pal Of Mine
TTITLE11=Banks Of The Ohio
TTITLE12=Drifting Too Far From The Shore
TTITLE13=I'M Just Here To Get My Baby Out Of Jail
TTITLE14=Baby Girl
TTITLE15=Katy Hill
TTITLE16=Little Glass Of Wine
TTITLE17=Prosperity Special
TTITLE18=Living The Right Life Now
TTITLE19=Thirty Pieces Of Silver
EXTD=
EXTT0=
EXTT1=
EXTT2=
EXTT3=
EXTT4=
EXTT5=
EXTT6=
EXTT7=
EXTT8=
EXTT9=
EXTT10=
EXTT11=
EXTT12=
EXTT13=
EXTT14=
EXTT15=
EXTT16=
EXTT17=
EXTT18=
EXTT19=
PLAYORDER=
